<mxfile host="app.diagrams.net" modified="2023-09-05T11:30:10.649Z" agent="Mozilla/5.0 (Windows NT 10.0; Win64; x64) AppleWebKit/537.36 (KHTML, like Gecko) Chrome/116.0.0.0 Safari/537.36" version="21.6.1" etag="Wy2x85-PBJIyRyG8W7UQ" type="github">
  <diagram name="Seite-1" id="7uVtg0_IVu06LrawBgBZ">
    <mxGraphModel>
      <root>
        <mxCell id="0" />
        <mxCell id="1" parent="0" />
      </root>
    </mxGraphModel>
  </diagram>
</mxfile>
